PathFileType	4	(X/Y/Z)	C:/Users/opensim2020/Desktop/walking_exp_matlab/subject03_walking10_straight_04.trc																																																																																																																																					
DataRate	CameraRate	NumFrames	NumMarkers	Units	OrigDataRate	OrigDataStartFrame	OrigNumFrames																																																																																																																																	
100	100	8	45	mm	100	3824	317																																																																																																																																	
Frame#	Time	LFHD			RFHD			LBHD			RBHD			C7			T10			CLAV			STRN			RBAK			LSHO			LUPA			LELB			LFRM			LWRA			LWRB			LFIN			RSHO			RUPA			RELB			RFRM			RWRA			RWRB			RFIN			LASI			RASI			LPSI			RPSI			LTHI			LKNE			LTIB			LANK			LHEE			LTOE			RTHI			RKNE			RTIB			RANK			RHEE			RTOE			*39			*40			*41			*42			*43			*44		
		X1	Y1	Z1	X2	Y2	Z2	X3	Y3	Z3	X4	Y4	Z4	X5	Y5	Z5	X6	Y6	Z6	X7	Y7	Z7	X8	Y8	Z8	X9	Y9	Z9	X10	Y10	Z10	X11	Y11	Z11	X12	Y12	Z12	X13	Y13	Z13	X14	Y14	Z14	X15	Y15	Z15	X16	Y16	Z16	X17	Y17	Z17	X18	Y18	Z18	X19	Y19	Z19	X20	Y20	Z20	X21	Y21	Z21	X22	Y22	Z22	X23	Y23	Z23	X24	Y24	Z24	X25	Y25	Z25	X26	Y26	Z26	X27	Y27	Z27	X28	Y28	Z28	X29	Y29	Z29	X30	Y30	Z30	X31	Y31	Z31	X32	Y32	Z32	X33	Y33	Z33	X34	Y34	Z34	X35	Y35	Z35	X36	Y36	Z36	X37	Y37	Z37	X38	Y38	Z38	X39	Y39	Z39	X40	Y40	Z40	X41	Y41	Z41	X42	Y42	Z42	X43	Y43	Z43	X44	Y44	Z44	X45	Y45	Z45
																																																																																																																																								
1	0	-1010.23792	1614.8252	937.37885	-1011.32385	1620.60059	1070.26514	-1137.12952	1567.67078	941.62103	-1133.27454	1573.09106	1072.23083	-1168.38232	1416.43823	1011.86212	-1214.0658	1104.33923	1020.06403	-1047.27612	1336.19116	999.82697	-1014.11743	1169.36389	995.67975	-1211.36438	1247.92151	1123.6759	-1110.01465	1373.10181	848.61328	-1149.43469	1177.98242	779.56665	-1155.35107	1055.19165	765.32843	-1125.26147	929.15491	761.64697	-1093.31384	814.42535	789.91425	-1127.13562	816.10358	745.50977	-1101.27075	736.1958	750.36493	-1067.63293	1364.50391	1161.16675	-1018.98169	1152.89136	1242.64954	-975.68634	1049.71924	1257.6084	-921.13788	924.49933	1258.08655	-871.64349	840.31189	1218.48914	-892.20966	828.66925	1266.63123	-849.98193	768.66193	1254.39148	-1051.75208	940.69263	893.93365	-1042.61523	936.45685	1130.0708	-1213.19141	956.6969	947.04639	-1204.55273	968.5163	1096.92236	-1034.37573	644.41187	841.02643	-971.09204	476.93341	873.98163	-1023.41034	286.29587	878.49585	-1047.1532	78.11166	920.40527	-1085.41943	42.02069	962.23767	-902.3255	43.99251	935.18713	-1122.59778	641.64764	1164.62402	-1131.06909	462.1095	1127.21558	-1202.34534	283.3085	1125.89832	-1260.03735	74.93661	1073.1803	-1305.32166	47.32169	1021.70428	-1120.77844	30.42886	1063.73926	-1093.99951	1675.02844	986.58264	NaN	NaN	NaN	NaN	NaN	NaN	NaN	NaN	NaN	NaN	NaN	NaN	NaN	NaN	NaN
2	0.01	-1003.72998	1614.37488	936.83337	-1004.73651	1620.12012	1069.74402	-1130.50806	1566.90173	941.15387	-1126.57971	1572.32898	1071.80957	-1161.54529	1415.99548	1011.47772	-1207.67346	1103.95105	1019.72394	-1040.49719	1335.58545	999.33295	-1007.56519	1168.73657	995.25769	-1204.67432	1247.64209	1123.39087	-1103.35413	1372.51245	848.15674	-1143.57617	1177.29492	779.86981	-1150.18005	1054.49976	766.11389	-1120.29724	928.35095	762.8537	-1089.15698	813.60858	791.88031	-1122.29688	815.25049	747.24146	-1096.54578	735.3847	752.26355	-1060.71765	1364.06738	1160.70422	-1011.47723	1152.55554	1242.08899	-967.67059	1049.62769	1256.81433	-911.67719	925.05817	1256.33289	-861.34045	841.84418	1216.12805	-881.62006	829.61078	1263.98328	-838.5885	770.19202	1251.1134	-1045.16321	940.10828	893.73938	-1036.48889	935.85901	1129.84814	-1206.82349	956.27625	946.74634	-1198.31299	968.11481	1096.66516	-1028.50647	643.5589	840.97314	-964.16901	476.64316	875.35657	-1009.70856	284.771	879.04865	-1023.85284	75.54457	920.23065	-1061.97461	38.30686	961.77161	-878.79443	45.01972	935.86877	-1117.89673	641.24164	1164.47107	-1127.52466	461.79956	1127.18396	-1200.10352	283.48096	1125.90735	-1259.63306	75.53577	1073.29614	-1305.17175	48.23766	1021.70642	-1120.69666	30.39285	1063.78284	-1087.58167	1674.32764	986.13751	NaN	NaN	NaN	NaN	NaN	NaN	NaN	NaN	NaN	NaN	NaN	NaN	NaN	NaN	NaN
3	0.02	-997.12396	1613.86804	936.37	-998.16492	1619.59277	1069.2782	-1123.95996	1566.11963	940.64117	-1119.854	1571.52393	1071.33862	-1154.62134	1415.50586	1010.96393	-1201.25671	1103.51917	1019.33716	-1033.66296	1334.99902	998.8064	-1000.89478	1168.08923	994.77869	-1197.99353	1247.29797	1122.97498	-1096.57654	1371.88184	847.62158	-1137.51306	1176.55164	780.06848	-1144.70251	1053.70923	766.9245	-1115.16223	927.50159	764.05591	-1083.18237	812.9375	792.93536	-1117.42932	814.3067	748.98279	-1092.01868	734.47681	754.22693	-1053.76868	1363.41833	1160.15076	-1004.08167	1152.09973	1241.46106	-959.8103	1049.37976	1255.88696	-902.50012	925.47919	1254.43994	-851.38049	843.19513	1213.37512	-871.25281	830.29382	1261.28259	-827.50586	771.65662	1247.83301	-1038.71423	939.41321	893.62958	-1030.22278	935.21808	1129.56238	-1200.32031	955.79962	946.37604	-1191.99475	967.65448	1096.32593	-1022.47522	642.58337	840.78784	-957.61292	476.21152	876.77185	-996.44952	283.42163	879.62219	-1002.08331	73.33279	919.76373	-1039.12256	35.30936	961.1676	-855.95087	46.12706	936.14063	-1113.10913	640.89276	1164.41101	-1123.82251	461.4491	1127.17078	-1197.96375	283.66489	1125.78516	-1259.30103	76.25256	1073.19263	-1304.97424	49.18023	1021.68219	-1120.66406	30.3365	1063.73303	-1081.0188	1673.52124	985.38977	NaN	NaN	NaN	NaN	NaN	NaN	NaN	NaN	NaN	NaN	NaN	NaN	NaN	NaN	NaN
4	0.03	-990.45923	1613.32983	935.88666	-991.49219	1619.04309	1068.76648	-1117.23315	1565.3125	940.12988	-1113.10437	1570.70496	1070.82324	-1147.72473	1414.97949	1010.45984	-1194.74182	1103.05212	1018.89545	-1026.76099	1334.26587	998.28674	-994.04736	1167.38647	994.32153	-1191.32471	1246.93188	1122.50024	-1089.67529	1371.23206	847.03583	-1131.14783	1175.75586	780.29565	-1138.95691	1052.83337	767.73059	-1109.89331	926.56116	765.25153	-1078.87134	811.95581	794.95587	-1112.58533	813.31891	750.75757	-1087.21167	733.33655	756.38898	-1046.82629	1362.74548	1159.60449	-996.83362	1151.55884	1240.77319	-952.12677	1049.05933	1254.88245	-893.5163	925.79724	1252.50562	-841.677	844.39777	1210.59924	-861.24237	830.90936	1258.50464	-816.88123	772.97968	1244.40002	-1031.90137	938.59338	893.30212	-1023.91919	934.53271	1129.24817	-1193.75183	955.26581	945.97223	-1185.6156	967.18542	1095.95422	-1016.46838	641.57172	840.63666	-951.23047	475.68094	878.07343	-983.66254	282.18182	880.07813	-981.11652	71.87439	919.08319	-1016.9303	32.99222	960.72455	-833.96606	47.5755	936.04694	-1108.20898	640.49402	1164.27942	-1120.1698	461.17944	1127.15759	-1195.74585	283.91101	1125.69006	-1258.97412	77.06285	1073.15271	-1304.82385	50.26694	1021.64685	-1120.60559	30.34081	1063.74658	-1074.49084	1672.72754	984.86615	NaN	NaN	NaN	NaN	NaN	NaN	NaN	NaN	NaN	NaN	NaN	NaN	NaN	NaN	NaN
5	0.04	-983.74042	1612.79236	935.35327	-984.85187	1618.47742	1068.23279	-1110.48694	1564.47375	939.61865	-1106.36157	1569.91431	1070.28406	-1140.74927	1414.35828	1009.88312	-1188.19751	1102.56897	1018.37085	-1019.77051	1333.54407	997.72809	-987.35431	1166.61047	993.8111	-1184.64819	1246.52124	1121.94275	-1082.6416	1370.58521	846.46448	-1124.67566	1174.97839	780.39606	-1133.08655	1052.02539	768.49878	-1104.49255	925.55756	766.44135	-1072.9325	811.11597	796.16119	-1107.60059	812.27124	752.46985	-1082.5116	732.10315	758.54321	-1039.88452	1361.90125	1158.94714	-989.6698	1150.90222	1240.04175	-944.63477	1048.68018	1253.74402	-884.83063	925.97418	1250.49426	-832.33563	845.47723	1207.75024	-851.59351	831.39691	1255.62463	-806.63348	774.11395	1240.96692	-1025.07654	937.83459	893.00311	-1017.53503	933.85858	1128.92944	-1187.07117	954.64825	945.51965	-1179.23352	966.69165	1095.49976	-1010.46912	640.43732	840.51135	-945.07782	474.88681	879.38617	-971.36804	280.99649	880.45959	-960.86938	70.7422	918.51508	-995.651	31.23851	959.48029	-812.82214	49.61529	935.59644	-1103.2251	640.1402	1164.07971	-1116.45447	460.9343	1127.10278	-1193.56274	284.20102	1125.64392	-1258.57996	77.86417	1073.20032	-1304.60535	51.36103	1021.63373	-1120.52747	30.34468	1063.79089	-1067.93396	1671.9989	984.33466	NaN	NaN	NaN	NaN	NaN	NaN	NaN	NaN	NaN	NaN	NaN	NaN	NaN	NaN	NaN
6	0.05	-977.00256	1612.20923	934.75146	-978.14343	1617.9115	1067.66101	-1103.78979	1563.65259	938.9538	-1099.55579	1569.0813	1069.71057	-1133.65247	1413.69458	1009.22046	-1181.53345	1102.03113	1017.72473	-1012.71289	1332.8031	997.15039	-980.45782	1165.83777	993.35956	-1177.95093	1246.06714	1121.26392	-1075.5022	1369.84448	845.84119	-1117.90674	1174.10083	780.45825	-1126.91248	1051.06177	769.1734	-1098.90515	924.50421	767.60706	-1068.45459	809.98236	798.17242	-1102.46497	811.08887	754.20215	-1077.8125	730.87549	760.72113	-1032.94141	1361.2218	1158.40625	-982.65381	1150.17041	1239.22961	-937.24902	1048.07996	1252.61121	-876.38892	925.94061	1248.40393	-823.25537	846.34772	1204.90845	-842.19556	831.67047	1252.62964	-796.69409	774.99274	1237.41968	-1018.22296	936.97461	892.64197	-1011.11707	933.19818	1128.59448	-1180.29944	953.94824	944.94879	-1172.77014	966.1673	1094.95667	-1004.47864	639.23334	840.48431	-939.13306	473.93747	880.40002	-959.60193	279.8895	880.73572	-941.54224	70.04385	917.84778	-975.11169	29.92341	958.77686	-792.72699	52.03449	934.72968	-1098.19556	639.82605	1163.88013	-1112.66309	460.70871	1127.05396	-1191.28003	284.5256	1125.56372	-1258.05823	78.6819	1073.30518	-1304.36816	52.55205	1021.64764	-1120.42224	30.40529	1063.97437	-1061.45349	1671.46362	984.02069	NaN	NaN	NaN	NaN	NaN	NaN	NaN	NaN	NaN	NaN	NaN	NaN	NaN	NaN	NaN
7	0.06	-970.28699	1611.62305	934.10718	-971.42236	1617.38843	1067.07092	-1096.99414	1562.79822	938.2934	-1092.7312	1568.26941	1069.05896	-1126.44971	1412.95972	1008.45294	-1174.77173	1101.4873	1016.97595	-1005.60388	1331.99707	996.5498	-973.47803	1165.05542	992.88171	-1171.16565	1245.57764	1120.49487	-1068.23059	1369.1123	845.10974	-1111.03003	1173.19995	780.4079	-1120.51978	1050.07202	769.80457	-1093.10645	923.33801	768.7345	-1063.15637	808.82574	799.78241	-1097.19592	809.88776	755.87286	-1073.04956	729.50555	762.91675	-1025.97864	1360.43677	1157.79456	-975.73315	1149.32227	1238.38733	-930.04749	1047.36694	1251.41663	-868.2735	925.80664	1246.26538	-814.56573	847.00043	1201.98975	-833.2514	831.82428	1249.68555	-787.16528	775.71155	1233.90942	-1011.21179	935.99017	892.19604	-1004.6333	932.505	1128.2583	-1173.47278	953.2226	944.29553	-1166.21204	965.5946	1094.30396	-998.5174	637.9682	840.43671	-933.3739	472.91272	881.21722	-948.2511	278.98514	880.98566	-923.02728	69.50701	917.33594	-955.77032	29.01543	957.97009	-773.75574	54.71423	933.42395	-1093.13879	639.57062	1163.66821	-1108.7865	460.51196	1126.99121	-1188.95557	284.88498	1125.52112	-1257.62109	79.6245	1073.2356	-1304.1106	53.82899	1021.677	-1120.32239	30.24072	1063.8197	-1054.75098	1670.53748	983.17896	NaN	NaN	NaN	NaN	NaN	NaN	NaN	NaN	NaN	NaN	NaN	NaN	NaN	NaN	NaN
8	0.07	-963.4472	1611.06421	933.46735	-964.67004	1616.87817	1066.38123	-1090.22644	1562.01733	937.59698	-1085.85962	1567.45422	1068.39722	-1119.32654	1412.39929	1007.70209	-1167.91968	1100.9292	1016.12201	-998.41968	1331.33984	995.93958	-966.51141	1164.22107	992.3446	-1164.38867	1245.06287	1119.6554	-1060.73914	1368.28918	844.35913	-1103.90503	1172.25427	780.35785	-1113.98828	1049.02539	770.35046	-1087.18127	922.22083	769.81897	-1056.80347	807.79138	800.93237	-1091.81201	808.63	757.42963	-1068.198	728.1579	765.05383	-1019.00763	1359.62927	1157.14856	-968.90558	1148.41174	1237.46851	-923.021	1046.53479	1250.18494	-860.31464	925.47217	1244.04834	-806.13556	847.50616	1199.10669	-824.86206	831.89972	1246.63208	-778.12982	776.22943	1230.38281	-1004.06244	935.05219	891.72754	-998.07697	931.86731	1127.92102	-1166.53345	952.4762	943.52899	-1159.59973	965.04779	1093.56226	-992.60217	636.65149	840.37555	-927.81995	471.80707	882.04602	-937.5235	278.17484	881.10944	-906.09656	69.45226	916.59863	-937.2583	28.24598	957.56885	-755.93103	57.19462	931.95422	-1087.99744	639.35132	1163.41614	-1104.80725	460.36853	1126.89893	-1186.52466	285.33768	1125.56799	-1257.16406	80.66196	1073.34631	-1303.83643	55.30195	1021.82086	-1120.25256	30.24843	1063.85559	-1048.15295	1669.83911	982.58386	NaN	NaN	NaN	NaN	NaN	NaN	NaN	NaN	NaN	NaN	NaN	NaN	NaN	NaN	NaN
